<svg width="93" height="109" viewBox="0 0 93 109" fill="none" xmlns="http://www.w3.org/2000/svg">
<path d="M0.304688 36.735V85.8951L36.3047 108.185V59.695L0.304688 36.735Z" fill="#97E5F2" stroke="black" stroke-width="0.61" stroke-linejoin="round"/>
<path d="M91.9746 23.425V73.815L36.3046 108.375V59.505L91.9746 23.425Z" fill="#ED4746" stroke="black" stroke-width="0.54" stroke-linejoin="round"/>
<path d="M91.9746 23.325L55.9046 0.304993L0.304596 36.225L36.3046 59.695L91.9746 23.325Z" fill="#F2F8D7" stroke="black" stroke-width="0.61" stroke-linejoin="round"/>
<mask id="mask0_5_386" style="mask-type:luminance" maskUnits="userSpaceOnUse" x="36" y="23" width="56" height="85">
<path d="M91.9746 23.8651L91.5946 73.435L36.8046 107.595L36.7246 59.695L91.9746 23.8651Z" fill="white"/>
</mask>
<g mask="url(#mask0_5_386)">
<path d="M88.1846 21.595V98.285" stroke="#97E5F2" stroke-width="0.5" stroke-linejoin="round"/>
<path d="M80.6748 25.9951V102.685" stroke="#97E5F2" stroke-width="0.5" stroke-linejoin="round"/>
<path d="M73.1553 30.6351V107.325" stroke="#97E5F2" stroke-width="0.5" stroke-linejoin="round"/>
<path d="M65.6348 35.475V112.165" stroke="#97E5F2" stroke-width="0.5" stroke-linejoin="round"/>
<path d="M58.125 40.3151V117.005" stroke="#97E5F2" stroke-width="0.5" stroke-linejoin="round"/>
<path d="M50.6045 46.3051V122.995" stroke="#97E5F2" stroke-width="0.5" stroke-linejoin="round"/>
<path d="M43.0947 49.8651V126.545" stroke="#97E5F2" stroke-width="0.5" stroke-linejoin="round"/>
</g>
</svg>
