<svg width="83" height="159" viewBox="0 0 83 159" fill="none" xmlns="http://www.w3.org/2000/svg">
<path d="M81.8496 65.53V127.03L32.3096 157.79V96.28L81.8496 65.53Z" fill="#FBAB31" stroke="black" stroke-width="0.54" stroke-linejoin="round"/>
<path d="M0.269531 76.45L0.759521 137.87L32.3095 157.79V96.28L0.269531 76.45Z" fill="#97E5F2" stroke="black" stroke-width="0.54" stroke-linejoin="round"/>
<path d="M35.2295 70.43V77.26C35.2295 80.26 30.7595 82.69 25.2495 82.69C19.7395 82.69 15.2695 80.26 15.2695 77.26V70.43" fill="#E1D7CE"/>
<path d="M35.2295 70.43V77.26C35.2295 80.26 30.7595 82.69 25.2495 82.69C19.7395 82.69 15.2695 80.26 15.2695 77.26V70.43" stroke="black" stroke-width="0.54" stroke-linejoin="round"/>
<path d="M25.2495 75.86C30.7613 75.86 35.2295 73.4289 35.2295 70.43C35.2295 67.4311 30.7613 65 25.2495 65C19.7377 65 15.2695 67.4311 15.2695 70.43C15.2695 73.4289 19.7377 75.86 25.2495 75.86Z" fill="white" stroke="black" stroke-width="0.54" stroke-linejoin="round"/>
<path d="M33.46 73.66V80.55" stroke="white" stroke-width="0.43" stroke-linejoin="round"/>
<path d="M31.3701 74.63V81.52" stroke="white" stroke-width="0.43" stroke-linejoin="round"/>
<path d="M29.29 75.42V82.3" stroke="white" stroke-width="0.43" stroke-linejoin="round"/>
<path d="M27.1992 75.85V82.74" stroke="white" stroke-width="0.43" stroke-linejoin="round"/>
<path d="M25.1201 75.85V82.74" stroke="white" stroke-width="0.43" stroke-linejoin="round"/>
<path d="M23.0293 75.8V82.68" stroke="white" stroke-width="0.43" stroke-linejoin="round"/>
<path d="M20.9492 75.42V82.3" stroke="white" stroke-width="0.43" stroke-linejoin="round"/>
<path d="M18.8594 74.63V81.52" stroke="white" stroke-width="0.43" stroke-linejoin="round"/>
<path d="M16.7793 73.2V80.09" stroke="white" stroke-width="0.43" stroke-linejoin="round"/>
<path d="M59.2197 55.74V62.57C59.2197 65.57 54.7497 68 49.2397 68C43.7297 68 39.2598 65.57 39.2598 62.57V55.74" fill="#E1D7CE"/>
<path d="M59.2197 55.74V62.57C59.2197 65.57 54.7497 68 49.2397 68C43.7297 68 39.2598 65.57 39.2598 62.57V55.74" stroke="black" stroke-width="0.54" stroke-linejoin="round"/>
<path d="M49.2397 61.17C54.7515 61.17 59.2197 58.7389 59.2197 55.74C59.2197 52.7411 54.7515 50.31 49.2397 50.31C43.7279 50.31 39.2598 52.7411 39.2598 55.74C39.2598 58.7389 43.7279 61.17 49.2397 61.17Z" fill="white" stroke="black" stroke-width="0.54" stroke-linejoin="round"/>
<path d="M57.4492 58.98V65.86" stroke="white" stroke-width="0.43" stroke-linejoin="round"/>
<path d="M55.3594 59.95V66.84" stroke="white" stroke-width="0.43" stroke-linejoin="round"/>
<path d="M53.2793 60.74V67.62" stroke="white" stroke-width="0.43" stroke-linejoin="round"/>
<path d="M51.1895 61.17V68.06" stroke="white" stroke-width="0.43" stroke-linejoin="round"/>
<path d="M49.1094 61.17V68.06" stroke="white" stroke-width="0.43" stroke-linejoin="round"/>
<path d="M47.0195 61.11V68" stroke="white" stroke-width="0.43" stroke-linejoin="round"/>
<path d="M44.9395 60.74V67.62" stroke="white" stroke-width="0.43" stroke-linejoin="round"/>
<path d="M42.8496 59.95V66.84" stroke="white" stroke-width="0.43" stroke-linejoin="round"/>
<path d="M40.7695 58.52V65.41" stroke="white" stroke-width="0.43" stroke-linejoin="round"/>
<path d="M35.3702 38.96V45.79C35.3702 48.79 30.9003 51.22 25.3903 51.22C19.8803 51.22 15.4102 48.79 15.4102 45.79V38.96" fill="#E1D7CE"/>
<path d="M35.3702 38.96V45.79C35.3702 48.79 30.9003 51.22 25.3903 51.22C19.8803 51.22 15.4102 48.79 15.4102 45.79V38.96" stroke="black" stroke-width="0.54" stroke-linejoin="round"/>
<path d="M25.3903 44.39C30.9021 44.39 35.3702 41.9589 35.3702 38.96C35.3702 35.9611 30.9021 33.53 25.3903 33.53C19.8785 33.53 15.4102 35.9611 15.4102 38.96C15.4102 41.9589 19.8785 44.39 25.3903 44.39Z" fill="white" stroke="black" stroke-width="0.54" stroke-linejoin="round"/>
<path d="M33.7295 41.94V48.76" stroke="white" stroke-width="0.43" stroke-linejoin="round"/>
<path d="M31.6396 43.11V49.99" stroke="white" stroke-width="0.43" stroke-linejoin="round"/>
<path d="M29.5596 43.89V50.78" stroke="white" stroke-width="0.43" stroke-linejoin="round"/>
<path d="M27.4697 44.33V51.21" stroke="white" stroke-width="0.43" stroke-linejoin="round"/>
<path d="M25.3896 44.33V51.21" stroke="white" stroke-width="0.43" stroke-linejoin="round"/>
<path d="M23.2998 44.27V51.15" stroke="white" stroke-width="0.43" stroke-linejoin="round"/>
<path d="M21.2197 43.89V50.78" stroke="white" stroke-width="0.43" stroke-linejoin="round"/>
<path d="M19.1299 43.11V49.99" stroke="white" stroke-width="0.43" stroke-linejoin="round"/>
<path d="M17.0498 41.94V48.76" stroke="white" stroke-width="0.43" stroke-linejoin="round"/>
<path d="M81.8496 20.85V65.7L32.3096 96.45V52.96L81.8496 20.85Z" fill="#ED4746" stroke="black" stroke-width="0.54" stroke-linejoin="round"/>
<path d="M81.8495 20.76L49.7496 0.27L0.269531 32.7L32.3095 53.13L81.8495 20.76Z" fill="white" stroke="black" stroke-width="0.54" stroke-linejoin="round"/>
<path d="M0.269531 32.7V76.45L32.3095 96.28V53.13L0.269531 32.7Z" fill="#97E5F2" stroke="black" stroke-width="0.54" stroke-linejoin="round"/>
</svg>
