<svg width="150" height="274" viewBox="0 0 150 274" fill="none" xmlns="http://www.w3.org/2000/svg">
<path d="M90.0797 141.745V193.825L51.9297 217.445V166.065L90.0797 141.745Z" fill="#97E5F2" stroke="black" stroke-width="0.64" stroke-linejoin="round"/>
<path d="M-9 203.135L106.79 273.405" stroke="black" stroke-width="0.5" stroke-linejoin="round"/>
<path d="M-7.0498 24.765V78.155L51.9302 114.765V62.995L-7.0498 24.765Z" fill="#ED4746" stroke="black" stroke-width="0.64" stroke-linejoin="round"/>
<path d="M-7.0498 24.665L31.1702 0.265015L90.0802 38.865L51.9302 63.195L-7.0498 24.665Z" fill="#F2F8D7" stroke="black" stroke-width="0.53" stroke-linejoin="round"/>
<path d="M90.0797 38.865V90.955L51.9297 114.565V63.195L90.0797 38.865Z" fill="#297C85" stroke="black" stroke-width="0.64" stroke-linejoin="round"/>
<mask id="mask0_1_28824" style="mask-type:luminance" maskUnits="userSpaceOnUse" x="-7" y="25" width="59" height="89">
<path d="M-6.75 25.235L-6.35999 75.835L51.46 113.395V63.455L-6.75 25.235Z" fill="white"/>
</mask>
<g mask="url(#mask0_1_28824)">
<path d="M6.88965 28.015V106.295" stroke="#97E5F2" stroke-width="0.5" stroke-linejoin="round"/>
<path d="M14.5703 32.755V111.035" stroke="#97E5F2" stroke-width="0.5" stroke-linejoin="round"/>
<path d="M22.2402 37.685V115.975" stroke="#97E5F2" stroke-width="0.5" stroke-linejoin="round"/>
<path d="M29.9102 42.625V120.915" stroke="#97E5F2" stroke-width="0.5" stroke-linejoin="round"/>
<path d="M37.5801 48.745V127.025" stroke="#97E5F2" stroke-width="0.5" stroke-linejoin="round"/>
<path d="M45.25 52.375V130.655" stroke="#97E5F2" stroke-width="0.5" stroke-linejoin="round"/>
</g>
<path d="M-7.0498 76.065V129.445L51.9302 166.055V114.285L-7.0498 76.065Z" fill="#ED4746" stroke="black" stroke-width="0.64" stroke-linejoin="round"/>
<path d="M90.0797 90.155V142.245L51.9297 165.855V114.485L90.0797 90.155Z" fill="#297C85" stroke="black" stroke-width="0.64" stroke-linejoin="round"/>
<mask id="mask1_1_28824" style="mask-type:luminance" maskUnits="userSpaceOnUse" x="-7" y="76" width="59" height="90">
<path d="M-6.75 76.985L-6.35999 127.585L51.46 165.135V115.205L-6.75 76.985Z" fill="white"/>
</mask>
<g mask="url(#mask1_1_28824)">
<path d="M6.88965 79.7549V158.045" stroke="#97E5F2" stroke-width="0.5" stroke-linejoin="round"/>
<path d="M14.5703 84.5049V162.785" stroke="#97E5F2" stroke-width="0.5" stroke-linejoin="round"/>
<path d="M22.2402 89.4349V167.725" stroke="#97E5F2" stroke-width="0.5" stroke-linejoin="round"/>
<path d="M29.9102 94.3749V172.665" stroke="#97E5F2" stroke-width="0.5" stroke-linejoin="round"/>
<path d="M37.5801 100.495V178.775" stroke="#97E5F2" stroke-width="0.5" stroke-linejoin="round"/>
<path d="M45.25 104.125V182.405" stroke="#97E5F2" stroke-width="0.5" stroke-linejoin="round"/>
</g>
<path d="M-7.0498 127.645V181.025L51.9302 217.645V165.865L-7.0498 127.645Z" fill="#ED4746" stroke="black" stroke-width="0.64" stroke-linejoin="round"/>
<mask id="mask2_1_28824" style="mask-type:luminance" maskUnits="userSpaceOnUse" x="-7" y="128" width="59" height="89">
<path d="M-6.75 128.725L-6.34998 180.725L51.46 216.885V166.955L-6.75 128.725Z" fill="white"/>
</mask>
<g mask="url(#mask2_1_28824)">
<path d="M6.88965 131.505V209.795" stroke="#97E5F2" stroke-width="0.5" stroke-linejoin="round"/>
<path d="M14.5703 136.255V214.535" stroke="#97E5F2" stroke-width="0.5" stroke-linejoin="round"/>
<path d="M22.2402 141.185V219.465" stroke="#97E5F2" stroke-width="0.5" stroke-linejoin="round"/>
<path d="M29.9102 146.125V224.405" stroke="#97E5F2" stroke-width="0.5" stroke-linejoin="round"/>
<path d="M37.5801 152.235V230.525" stroke="#97E5F2" stroke-width="0.5" stroke-linejoin="round"/>
<path d="M45.25 155.875V234.155" stroke="#97E5F2" stroke-width="0.5" stroke-linejoin="round"/>
</g>
<path d="M148.82 179.595V230.505L110.8 254.045V203.835L148.82 179.595Z" fill="#E8B555" stroke="black" stroke-width="0.68" stroke-linejoin="round"/>
<path d="M52.0098 165.545V217.755L110.8 254.245V203.645L52.0098 165.545Z" fill="#97E5F2" stroke="black" stroke-width="0.53" stroke-linejoin="round"/>
<path d="M52.0098 165.885L90.1097 141.565L148.82 179.505L110.8 204.285L52.0098 165.885Z" fill="#F2F8D7" stroke="black" stroke-width="0.68" stroke-linejoin="round"/>
<mask id="mask3_1_28824" style="mask-type:luminance" maskUnits="userSpaceOnUse" x="111" y="179" width="38" height="74">
<path d="M148.92 179.875L148.53 229.935L111.41 252.995L111.22 204.625L148.92 179.875Z" fill="white"/>
</mask>
<g mask="url(#mask3_1_28824)">
<path d="M145.67 175.835V254.125" stroke="#97E5F2" stroke-width="0.5" stroke-linejoin="round"/>
<path d="M138 179.785V258.065" stroke="#97E5F2" stroke-width="0.5" stroke-linejoin="round"/>
<path d="M130.33 184.275V262.555" stroke="#97E5F2" stroke-width="0.5" stroke-linejoin="round"/>
<path d="M122.649 189.015V267.295" stroke="#97E5F2" stroke-width="0.5" stroke-linejoin="round"/>
<path d="M114.979 193.955V272.235" stroke="#97E5F2" stroke-width="0.5" stroke-linejoin="round"/>
</g>
</svg>
