<svg width="188" height="69" viewBox="0 0 188 69" fill="none" xmlns="http://www.w3.org/2000/svg">
<rect x="0.5" y="0.5" width="187" height="68" fill="#ED4746"/>
<rect x="0.5" y="0.5" width="187" height="68" stroke="#46061D"/>
<path d="M48.004 40.5H43.796V28.804H47.892C51.348 28.804 53.732 31.188 53.732 34.676C53.732 38.116 51.396 40.5 48.004 40.5ZM47.7 30.692H45.844V38.612H47.812C50.148 38.612 51.572 37.108 51.572 34.676C51.572 32.196 50.116 30.692 47.7 30.692ZM58.4878 28.804V40.5H56.4398V28.804H58.4878ZM61.2084 32.068C61.2084 30.02 62.9044 28.596 65.3684 28.596C67.7364 28.596 69.2404 29.908 69.3044 32.02H67.2564C67.2084 31.012 66.4884 30.42 65.3364 30.42C64.0724 30.42 63.2564 31.028 63.2564 32.004C63.2564 32.836 63.7044 33.3 64.6804 33.524L66.5204 33.924C68.5204 34.356 69.4964 35.38 69.4964 37.124C69.4964 39.3 67.8004 40.708 65.2244 40.708C62.7284 40.708 61.0964 39.38 61.0484 37.284H63.0964C63.1124 38.276 63.9124 38.868 65.2244 38.868C66.5844 38.868 67.4484 38.276 67.4484 37.3C67.4484 36.516 67.0484 36.052 66.0884 35.844L64.2324 35.428C62.2484 34.996 61.2084 33.86 61.2084 32.068ZM77.0931 40.692C73.6851 40.692 71.4771 38.324 71.4771 34.66C71.4771 31.028 73.7651 28.612 77.1891 28.612C79.9571 28.612 82.0211 30.228 82.4211 32.74H80.2611C79.8611 31.38 78.6931 30.58 77.1411 30.58C74.9811 30.58 73.6211 32.148 73.6211 34.644C73.6211 37.124 74.9971 38.724 77.1411 38.724C78.7251 38.724 79.9411 37.892 80.3251 36.596H82.4531C82.0051 39.06 79.8611 40.692 77.0931 40.692ZM95.7618 34.644C95.7618 38.196 93.4258 40.692 90.0658 40.692C86.7218 40.692 84.4178 38.212 84.4178 34.644C84.4178 31.092 86.7378 28.596 90.0818 28.596C93.4258 28.596 95.7618 31.076 95.7618 34.644ZM93.6018 34.644C93.6018 32.148 92.2258 30.564 90.0818 30.564C87.9378 30.564 86.5618 32.148 86.5618 34.644C86.5618 37.14 87.9378 38.724 90.0818 38.724C92.2258 38.724 93.6018 37.108 93.6018 34.644ZM101.17 40.5L96.7538 28.804H98.9298L101.49 35.54C101.746 36.244 101.97 36.932 102.226 37.876C102.514 36.852 102.754 36.132 102.978 35.54L105.506 28.804H107.634L103.282 40.5H101.17ZM117.157 40.5H109.893V28.804H117.157V30.692H111.941V33.7H116.613V35.508H111.941V38.612H117.157V40.5ZM122.225 40.5H120.177V28.804H124.641C127.297 28.804 128.849 30.148 128.849 32.452C128.849 34.02 128.113 35.14 126.737 35.7L128.961 40.5H126.721L124.737 36.132H122.225V40.5ZM122.225 30.628V34.324H124.641C125.937 34.324 126.705 33.636 126.705 32.452C126.705 31.284 125.937 30.628 124.641 30.628H122.225Z" fill="white"/>
<path d="M142 25.5312V43.4687M138.5 40.0432L142 43.4687L145.5 40.0432" stroke="white" stroke-width="1.5"/>
</svg>
