<svg width="1440" height="1812" viewBox="0 0 1440 1812" fill="none" xmlns="http://www.w3.org/2000/svg">
<path d="M1080.49 -601L-446 352.855" stroke="black" stroke-opacity="0.1"/>
<path d="M1101.68 -567.078L-424.804 386.777" stroke="black" stroke-opacity="0.1"/>
<path d="M1122.88 -533.156L-403.607 420.699" stroke="black" stroke-opacity="0.1"/>
<path d="M1144.08 -499.234L-382.41 454.62" stroke="black" stroke-opacity="0.1"/>
<path d="M1165.27 -465.312L-361.213 488.542" stroke="black" stroke-opacity="0.1"/>
<path d="M1186.47 -431.39L-340.017 522.464" stroke="black" stroke-opacity="0.1"/>
<path d="M1207.67 -397.468L-318.82 556.386" stroke="black" stroke-opacity="0.1"/>
<path d="M1228.86 -363.547L-297.623 590.308" stroke="black" stroke-opacity="0.1"/>
<path d="M1250.06 -329.625L-276.426 624.23" stroke="black" stroke-opacity="0.1"/>
<path d="M1271.26 -295.703L-255.23 658.152" stroke="black" stroke-opacity="0.1"/>
<path d="M1292.45 -261.781L-234.032 692.074" stroke="black" stroke-opacity="0.1"/>
<path d="M1313.65 -227.859L-212.836 725.996" stroke="black" stroke-opacity="0.1"/>
<path d="M1334.85 -193.937L-191.639 759.918" stroke="black" stroke-opacity="0.1"/>
<path d="M1356.04 -160.015L-170.443 793.84" stroke="black" stroke-opacity="0.1"/>
<path d="M1377.24 -126.093L-149.245 827.762" stroke="black" stroke-opacity="0.1"/>
<path d="M1398.44 -92.1711L-128.049 861.684" stroke="black" stroke-opacity="0.1"/>
<path d="M1419.63 -58.2492L-106.852 895.605" stroke="black" stroke-opacity="0.1"/>
<path d="M1440.83 -24.3273L-85.6555 929.527" stroke="black" stroke-opacity="0.1"/>
<path d="M1462.03 9.59463L-64.4583 963.449" stroke="black" stroke-opacity="0.1"/>
<path d="M1483.22 43.5165L-43.262 997.371" stroke="black" stroke-opacity="0.1"/>
<path d="M1504.42 77.4385L-22.0647 1031.29" stroke="black" stroke-opacity="0.1"/>
<path d="M1525.62 111.36L-0.868435 1065.22" stroke="black" stroke-opacity="0.1"/>
<path d="M1546.82 145.282L20.3288 1099.14" stroke="black" stroke-opacity="0.1"/>
<path d="M1568.01 179.204L41.5251 1133.06" stroke="black" stroke-opacity="0.1"/>
<path d="M1589.21 213.126L62.7224 1166.98" stroke="black" stroke-opacity="0.1"/>
<path d="M1610.41 247.048L83.9187 1200.9" stroke="black" stroke-opacity="0.1"/>
<path d="M1631.6 280.97L105.116 1234.82" stroke="black" stroke-opacity="0.1"/>
<path d="M1652.8 314.892L126.312 1268.75" stroke="black" stroke-opacity="0.1"/>
<path d="M1674 348.814L147.509 1302.67" stroke="black" stroke-opacity="0.1"/>
<path d="M1695.19 382.736L168.706 1336.59" stroke="black" stroke-opacity="0.1"/>
<path d="M1716.39 416.658L189.903 1370.51" stroke="black" stroke-opacity="0.1"/>
<path d="M1737.59 450.58L211.099 1404.43" stroke="black" stroke-opacity="0.1"/>
<path d="M1758.78 484.502L232.297 1438.36" stroke="black" stroke-opacity="0.1"/>
<path d="M1779.98 518.423L253.493 1472.28" stroke="black" stroke-opacity="0.1"/>
<path d="M1801.18 552.345L274.69 1506.2" stroke="black" stroke-opacity="0.1"/>
<path d="M1822.37 586.267L295.886 1540.12" stroke="black" stroke-opacity="0.1"/>
<path d="M1843.57 620.189L317.084 1574.04" stroke="black" stroke-opacity="0.1"/>
<path d="M1864.77 654.111L338.28 1607.97" stroke="black" stroke-opacity="0.1"/>
<path d="M1885.96 688.033L359.477 1641.89" stroke="black" stroke-opacity="0.1"/>
<path d="M1907.16 721.955L380.674 1675.81" stroke="black" stroke-opacity="0.1"/>
<path d="M1928.36 755.877L401.871 1709.73" stroke="black" stroke-opacity="0.1"/>
<path d="M1949.55 789.799L423.067 1743.65" stroke="black" stroke-opacity="0.1"/>
<path d="M1970.75 823.721L444.264 1777.58" stroke="black" stroke-opacity="0.1"/>
<path d="M1991.95 857.643L465.461 1811.5" stroke="black" stroke-opacity="0.1"/>
<path d="M2003.85 322L445 -578" stroke="black" stroke-opacity="0.1"/>
<path d="M1983.85 356.641L425 -543.359" stroke="black" stroke-opacity="0.1"/>
<path d="M1963.85 391.282L405 -508.718" stroke="black" stroke-opacity="0.1"/>
<path d="M1943.85 425.923L385 -474.077" stroke="black" stroke-opacity="0.1"/>
<path d="M1923.85 460.564L365 -439.436" stroke="black" stroke-opacity="0.1"/>
<path d="M1903.85 495.205L345 -404.795" stroke="black" stroke-opacity="0.1"/>
<path d="M1883.85 529.846L325 -370.154" stroke="black" stroke-opacity="0.1"/>
<path d="M1863.85 564.487L305 -335.513" stroke="black" stroke-opacity="0.1"/>
<path d="M1843.85 599.128L285 -300.872" stroke="black" stroke-opacity="0.1"/>
<path d="M1823.85 633.769L265 -266.231" stroke="black" stroke-opacity="0.1"/>
<path d="M1803.85 668.41L245 -231.59" stroke="black" stroke-opacity="0.1"/>
<path d="M1783.85 703.051L225 -196.949" stroke="black" stroke-opacity="0.1"/>
<path d="M1763.85 737.692L205 -162.308" stroke="black" stroke-opacity="0.1"/>
<path d="M1743.85 772.333L185 -127.667" stroke="black" stroke-opacity="0.1"/>
<path d="M1723.85 806.974L165 -93.0259" stroke="black" stroke-opacity="0.1"/>
<path d="M1703.85 841.615L145 -58.3849" stroke="black" stroke-opacity="0.1"/>
<path d="M1683.85 876.256L125 -23.7439" stroke="black" stroke-opacity="0.1"/>
<path d="M1663.85 910.897L105 10.8971" stroke="black" stroke-opacity="0.1"/>
<path d="M1643.85 945.538L85 45.5381" stroke="black" stroke-opacity="0.1"/>
<path d="M1623.85 980.179L65 80.1792" stroke="black" stroke-opacity="0.1"/>
<path d="M1603.85 1014.82L45 114.82" stroke="black" stroke-opacity="0.1"/>
<path d="M1583.85 1049.46L25 149.461" stroke="black" stroke-opacity="0.1"/>
<path d="M1563.85 1084.1L4.99997 184.102" stroke="black" stroke-opacity="0.1"/>
<path d="M1543.85 1118.74L-15 218.743" stroke="black" stroke-opacity="0.1"/>
<path d="M1523.85 1153.38L-35 253.384" stroke="black" stroke-opacity="0.1"/>
<path d="M1503.85 1188.03L-55 288.025" stroke="black" stroke-opacity="0.1"/>
<path d="M1483.85 1222.67L-75 322.666" stroke="black" stroke-opacity="0.1"/>
<path d="M1463.85 1257.31L-95 357.307" stroke="black" stroke-opacity="0.1"/>
<path d="M1443.85 1291.95L-115 391.948" stroke="black" stroke-opacity="0.1"/>
<path d="M1423.85 1326.59L-135 426.589" stroke="black" stroke-opacity="0.1"/>
<path d="M1403.85 1361.23L-155 461.23" stroke="black" stroke-opacity="0.1"/>
<path d="M1383.85 1395.87L-175 495.871" stroke="black" stroke-opacity="0.1"/>
<path d="M1363.85 1430.51L-195 530.512" stroke="black" stroke-opacity="0.1"/>
<path d="M1343.85 1465.15L-215 565.153" stroke="black" stroke-opacity="0.1"/>
<path d="M1323.85 1499.79L-235 599.794" stroke="black" stroke-opacity="0.1"/>
<path d="M1303.85 1534.44L-255 634.435" stroke="black" stroke-opacity="0.1"/>
<path d="M1283.85 1569.08L-275 669.076" stroke="black" stroke-opacity="0.1"/>
<path d="M1263.85 1603.72L-295 703.717" stroke="black" stroke-opacity="0.1"/>
<path d="M1243.85 1638.36L-315 738.359" stroke="black" stroke-opacity="0.1"/>
<path d="M1223.85 1673L-335 773" stroke="black" stroke-opacity="0.1"/>
<path d="M1203.85 1707.64L-355 807.64" stroke="black" stroke-opacity="0.1"/>
<path d="M1183.85 1742.28L-375 842.281" stroke="black" stroke-opacity="0.1"/>
<path d="M1163.85 1776.92L-395 876.922" stroke="black" stroke-opacity="0.1"/>
<path d="M1143.85 1811.56L-415 911.564" stroke="black" stroke-opacity="0.1"/>
</svg>
