<svg width="88" height="22" viewBox="30 32.4313 88 21.1375" fill="none" xmlns="http://www.w3.org/2000/svg">
  <!-- A -->
  <path d="M30 32.4313V53.5688H51.0469V32.4313H30ZM44.4855 48.9569L40.4841 39.5322L36.4866 48.9569H34.3598L39.5585 37.0432H41.4884L46.6792 48.9529H44.4816L44.4855 48.9569Z" fill="#ED4746"/>
  <!-- N -->
  <path d="M63.2639 37.0866H65.3159V48.957H63.5672L57.0334 40.517V48.957H54.9814V37.0866H56.9113L63.2639 45.2982V37.0866Z" fill="#ED4746"/>
  <!-- T -->
  <path d="M69.2109 38.9808H72.9642V48.9175H75.0674V38.9808H78.8246V37.0431H69.2109V38.9808Z" fill="#ED4746"/>
  <!-- L -->
  <path d="M84.8032 37.0431H82.7158V48.9175H91.0338V47.0192H84.8032V37.0431Z" fill="#ED4746"/>
  <!-- E -->
  <path d="M94.9014 38.9178V48.9175H103.688V47.0546H96.7564V43.8645H102.069V42.0055H96.7564V38.9178H103.688V37.0431H94.9014V38.9178Z" fill="#ED4746"/>
  <!-- R -->
  <path d="M110.021 42.9349V38.9532H113.054C114.593 38.9532 115.507 39.6424 115.507 40.9185V40.946C115.507 42.1472 114.558 42.9349 113.065 42.9349H110.021ZM114.798 44.4276C116.46 43.955 117.626 42.7813 117.626 40.8357V40.8003C117.626 39.7645 117.283 38.8823 116.645 38.2403C115.881 37.4723 114.716 37.047 113.223 37.047H107.938V48.9174H110.021V44.782H112.632L115.543 48.9174H117.996L114.794 44.4276H114.798Z" fill="#ED4746"/>
</svg>
