<svg width="1440" height="86" viewBox="0 0 1440 86" fill="none" xmlns="http://www.w3.org/2000/svg">
<rect width="1440" height="86" fill="#FEFCF6"/>
<g clip-path="url(#clip0_1_29751)">
<path d="M63.2639 37.0866H65.3159V48.957H63.5672L57.0334 40.517V48.957H54.9814V37.0866H56.9113L63.2639 45.2982V37.0866Z" fill="#ED4746"/>
<path d="M69.2109 38.9808H72.9642V48.9175H75.0674V38.9808H78.8246V37.0431H69.2109V38.9808Z" fill="#ED4746"/>
<path d="M84.8032 37.0431H82.7158V48.9175H91.0338V47.0192H84.8032V37.0431Z" fill="#ED4746"/>
<path d="M110.021 42.9349V38.9532H113.054C114.593 38.9532 115.507 39.6424 115.507 40.9185V40.946C115.507 42.1472 114.558 42.9349 113.065 42.9349H110.021ZM114.798 44.4276C116.46 43.955 117.626 42.7813 117.626 40.8357V40.8003C117.626 39.7645 117.283 38.8823 116.645 38.2403C115.881 37.4723 114.716 37.047 113.223 37.047H107.938V48.9174H110.021V44.782H112.632L115.543 48.9174H117.996L114.794 44.4276H114.798Z" fill="#ED4746"/>
<path d="M94.9014 38.9178V48.9175H103.688V47.0546H96.7564V43.8645H102.069V42.0055H96.7564V38.9178H103.688V37.0431H94.9014V38.9178Z" fill="#ED4746"/>
<path d="M30 32.4313V53.5688H51.0469V32.4313H30ZM44.4855 48.9569L40.4841 39.5322L36.4866 48.9569H34.3598L39.5585 37.0432H41.4884L46.6792 48.9529H44.4816L44.4855 48.9569Z" fill="#ED4746"/>
</g>
<path d="M1065.48 48H1064.16L1067.59 38.601H1069.01L1072.45 48H1071.11L1070.27 45.66H1066.31L1065.48 48ZM1068.13 40.629L1066.7 44.555H1069.89L1068.45 40.629C1068.38 40.447 1068.32 40.226 1068.29 40.083C1068.26 40.213 1068.2 40.434 1068.13 40.629ZM1074.97 48H1073.7V38.601H1074.97L1079.78 45.868V38.601H1081.06V48H1079.78L1074.97 40.733V48ZM1082.34 39.771V38.601H1089.27V39.771H1086.44V48H1085.17V39.771H1082.34ZM1091.82 38.601V46.817H1095.95V48H1090.55V38.601H1091.82ZM1103.07 48H1097.34V38.601H1103.07V39.771H1098.61V42.709H1102.63V43.84H1098.61V46.817H1103.07V48ZM1106.19 48H1104.92V38.601H1108.47C1110.48 38.601 1111.68 39.667 1111.68 41.422C1111.68 42.722 1111.03 43.658 1109.86 44.035L1111.77 48H1110.35L1108.6 44.282H1106.19V48ZM1106.19 39.745V43.151H1108.48C1109.66 43.151 1110.34 42.514 1110.34 41.435C1110.34 40.343 1109.64 39.745 1108.47 39.745H1106.19ZM1118.25 38.601V48H1116.98V38.601H1118.25ZM1121.72 48H1120.44V38.601H1121.72L1126.53 45.868V38.601H1127.8V48H1126.53L1121.72 40.733V48ZM1133.1 48H1129.99V38.601H1133.05C1135.85 38.601 1137.75 40.499 1137.75 43.307C1137.75 46.102 1135.88 48 1133.1 48ZM1132.95 39.771H1131.26V46.817H1133.01C1135.1 46.817 1136.43 45.465 1136.43 43.307C1136.43 41.123 1135.1 39.771 1132.95 39.771ZM1140.65 38.601V48H1139.37V38.601H1140.65ZM1143.23 48H1141.9L1145.33 38.601H1146.75L1150.2 48H1148.86L1148.01 45.66H1144.06L1143.23 48ZM1145.88 40.629L1144.45 44.555H1147.64L1146.19 40.629C1146.13 40.447 1146.06 40.226 1146.04 40.083C1146.01 40.213 1145.95 40.434 1145.88 40.629Z" fill="#46061D"/>
<path d="M1173.06 44.009H1169.37V48H1168.09V38.601H1173.76V39.771H1169.37V42.852H1173.06V44.009ZM1183.78 43.294C1183.78 46.154 1181.91 48.156 1179.24 48.156C1176.59 48.156 1174.74 46.154 1174.74 43.294C1174.74 40.447 1176.6 38.432 1179.25 38.432C1181.92 38.432 1183.78 40.434 1183.78 43.294ZM1182.44 43.294C1182.44 41.11 1181.17 39.667 1179.25 39.667C1177.34 39.667 1176.08 41.11 1176.08 43.294C1176.08 45.478 1177.34 46.934 1179.25 46.934C1181.17 46.934 1182.44 45.465 1182.44 43.294ZM1185.34 44.659V38.601H1186.62V44.581C1186.62 46.089 1187.45 46.921 1188.94 46.921C1190.43 46.921 1191.25 46.076 1191.25 44.581V38.601H1192.53V44.659C1192.53 46.817 1191.15 48.156 1188.94 48.156C1186.72 48.156 1185.34 46.83 1185.34 44.659ZM1195.92 48H1194.65V38.601H1195.92L1200.73 45.868V38.601H1202.01V48H1200.73L1195.92 40.733V48ZM1207.3 48H1204.2V38.601H1207.25C1210.06 38.601 1211.96 40.499 1211.96 43.307C1211.96 46.102 1210.09 48 1207.3 48ZM1207.16 39.771H1205.47V46.817H1207.21C1209.31 46.817 1210.63 45.465 1210.63 43.307C1210.63 41.123 1209.31 39.771 1207.16 39.771ZM1219.31 48H1213.58V38.601H1219.31V39.771H1214.85V42.709H1218.87V43.84H1214.85V46.817H1219.31V48ZM1222.43 48H1221.16V38.601H1224.71C1226.72 38.601 1227.92 39.667 1227.92 41.422C1227.92 42.722 1227.27 43.658 1226.1 44.035L1228.01 48H1226.59L1224.84 44.282H1222.43V48ZM1222.43 39.745V43.151H1224.72C1225.9 43.151 1226.58 42.514 1226.58 41.435C1226.58 40.343 1225.88 39.745 1224.71 39.745H1222.43ZM1231.17 39.55C1231.17 40.499 1230.51 41.266 1229.6 41.383V40.837C1230.11 40.746 1230.47 40.408 1230.47 39.992C1230.38 40.044 1230.26 40.07 1230.11 40.07C1229.72 40.07 1229.38 39.784 1229.38 39.277C1229.38 38.783 1229.72 38.419 1230.24 38.419C1230.76 38.419 1231.17 38.848 1231.17 39.55ZM1232.52 41.136C1232.52 39.524 1233.82 38.432 1235.76 38.432C1237.55 38.432 1238.71 39.433 1238.81 41.058H1237.53C1237.46 40.122 1236.8 39.576 1235.74 39.576C1234.56 39.576 1233.79 40.174 1233.79 41.097C1233.79 41.851 1234.22 42.306 1235.11 42.514L1236.65 42.878C1238.19 43.229 1238.97 44.061 1238.97 45.387C1238.97 47.077 1237.66 48.156 1235.65 48.156C1233.74 48.156 1232.47 47.155 1232.39 45.543H1233.69C1233.72 46.44 1234.47 47.012 1235.65 47.012C1236.9 47.012 1237.69 46.427 1237.69 45.491C1237.69 44.75 1237.29 44.282 1236.39 44.074L1234.85 43.723C1233.31 43.372 1232.52 42.488 1232.52 41.136ZM1248.02 48.143C1245.35 48.143 1243.57 46.219 1243.57 43.307C1243.57 40.408 1245.4 38.445 1248.09 38.445C1250.21 38.445 1251.83 39.706 1252.18 41.63H1250.82C1250.47 40.408 1249.42 39.667 1248.05 39.667C1246.15 39.667 1244.9 41.097 1244.9 43.294C1244.9 45.491 1246.15 46.921 1248.05 46.921C1249.43 46.921 1250.52 46.18 1250.87 45.023H1252.22C1251.82 46.895 1250.14 48.143 1248.02 48.143ZM1262.26 43.294C1262.26 46.154 1260.39 48.156 1257.72 48.156C1255.07 48.156 1253.23 46.154 1253.23 43.294C1253.23 40.447 1255.09 38.432 1257.74 38.432C1260.4 38.432 1262.26 40.434 1262.26 43.294ZM1260.92 43.294C1260.92 41.11 1259.65 39.667 1257.74 39.667C1255.83 39.667 1254.57 41.11 1254.57 43.294C1254.57 45.478 1255.83 46.934 1257.74 46.934C1259.65 46.934 1260.92 45.465 1260.92 43.294ZM1265.14 48H1263.89V38.601H1265.14L1268.38 46.505L1271.61 38.601H1272.89V48H1271.64V44.282C1271.64 42.527 1271.65 41.89 1271.72 41.227L1268.97 48H1267.78L1265.05 41.253C1265.11 41.708 1265.14 42.67 1265.14 43.983V48ZM1278.73 44.646H1276.35V48H1275.08V38.601H1278.73C1280.57 38.601 1281.76 39.81 1281.76 41.617C1281.76 43.372 1280.56 44.646 1278.73 44.646ZM1278.51 39.745H1276.35V43.502H1278.46C1279.72 43.502 1280.42 42.761 1280.42 41.604C1280.42 40.421 1279.7 39.745 1278.51 39.745ZM1283.15 48H1281.82L1285.25 38.601H1286.67L1290.11 48H1288.78L1287.93 45.66H1283.98L1283.15 48ZM1285.8 40.629L1284.37 44.555H1287.55L1286.11 40.629C1286.05 40.447 1285.98 40.226 1285.95 40.083C1285.93 40.213 1285.86 40.434 1285.8 40.629ZM1290.82 41.136C1290.82 39.524 1292.12 38.432 1294.05 38.432C1295.85 38.432 1297.01 39.433 1297.11 41.058H1295.82C1295.76 40.122 1295.09 39.576 1294.04 39.576C1292.86 39.576 1292.09 40.174 1292.09 41.097C1292.09 41.851 1292.52 42.306 1293.4 42.514L1294.95 42.878C1296.49 43.229 1297.27 44.061 1297.27 45.387C1297.27 47.077 1295.95 48.156 1293.95 48.156C1292.04 48.156 1290.77 47.155 1290.69 45.543H1291.99C1292.01 46.44 1292.77 47.012 1293.95 47.012C1295.2 47.012 1295.99 46.427 1295.99 45.491C1295.99 44.75 1295.59 44.282 1294.69 44.074L1293.14 43.723C1291.61 43.372 1290.82 42.488 1290.82 41.136ZM1298.37 41.136C1298.37 39.524 1299.67 38.432 1301.61 38.432C1303.4 38.432 1304.56 39.433 1304.66 41.058H1303.38C1303.31 40.122 1302.65 39.576 1301.6 39.576C1300.41 39.576 1299.65 40.174 1299.65 41.097C1299.65 41.851 1300.07 42.306 1300.96 42.514L1302.51 42.878C1304.04 43.229 1304.82 44.061 1304.82 45.387C1304.82 47.077 1303.51 48.156 1301.5 48.156C1299.59 48.156 1298.32 47.155 1298.24 45.543H1299.54C1299.57 46.44 1300.32 47.012 1301.5 47.012C1302.75 47.012 1303.55 46.427 1303.55 45.491C1303.55 44.75 1303.14 44.282 1302.25 44.074L1300.7 43.723C1299.16 43.372 1298.37 42.488 1298.37 41.136Z" fill="#46061D"/>
<path d="M1326.99 48.143C1324.31 48.143 1322.53 46.219 1322.53 43.307C1322.53 40.408 1324.37 38.445 1327.06 38.445C1329.18 38.445 1330.8 39.706 1331.15 41.63H1329.79C1329.44 40.408 1328.38 39.667 1327.02 39.667C1325.12 39.667 1323.87 41.097 1323.87 43.294C1323.87 45.491 1325.12 46.921 1327.02 46.921C1328.4 46.921 1329.49 46.18 1329.84 45.023H1331.19C1330.79 46.895 1329.11 48.143 1326.99 48.143ZM1341.23 43.294C1341.23 46.154 1339.36 48.156 1336.69 48.156C1334.04 48.156 1332.19 46.154 1332.19 43.294C1332.19 40.447 1334.05 38.432 1336.71 38.432C1339.37 38.432 1341.23 40.434 1341.23 43.294ZM1339.89 43.294C1339.89 41.11 1338.62 39.667 1336.71 39.667C1334.79 39.667 1333.53 41.11 1333.53 43.294C1333.53 45.478 1334.79 46.934 1336.71 46.934C1338.62 46.934 1339.89 45.465 1339.89 43.294ZM1344.11 48H1342.86V38.601H1344.11L1347.34 46.505L1350.58 38.601H1351.85V48H1350.61V44.282C1350.61 42.527 1350.62 41.89 1350.68 41.227L1347.94 48H1346.75L1344.02 41.253C1344.08 41.708 1344.11 42.67 1344.11 43.983V48ZM1355.29 48H1354.04V38.601H1355.29L1358.53 46.505L1361.77 38.601H1363.04V48H1361.79V44.282C1361.79 42.527 1361.8 41.89 1361.87 41.227L1359.13 48H1357.93L1355.2 41.253C1355.27 41.708 1355.29 42.67 1355.29 43.983V48ZM1365.16 44.659V38.601H1366.44V44.581C1366.44 46.089 1367.27 46.921 1368.76 46.921C1370.25 46.921 1371.06 46.076 1371.06 44.581V38.601H1372.35V44.659C1372.35 46.817 1370.97 48.156 1368.76 48.156C1366.54 48.156 1365.16 46.83 1365.16 44.659ZM1375.74 48H1374.47V38.601H1375.74L1380.55 45.868V38.601H1381.83V48H1380.55L1375.74 40.733V48ZM1385.29 38.601V48H1384.02V38.601H1385.29ZM1386.57 39.771V38.601H1393.5V39.771H1390.68V48H1389.41V39.771H1386.57ZM1397.21 44.178L1394.02 38.601H1395.45L1397.55 42.358C1397.68 42.579 1397.75 42.761 1397.86 42.982C1397.98 42.748 1398 42.67 1398.17 42.358L1400.25 38.601H1401.64L1398.48 44.178V48H1397.21V44.178Z" fill="#46061D"/>
<defs>
<clipPath id="clip0_1_29751">
<rect width="88" height="21.1375" fill="white" transform="translate(30 32.4313)"/>
</clipPath>
</defs>
</svg>
