<svg width="68" height="97" viewBox="0 0 68 97" fill="none" xmlns="http://www.w3.org/2000/svg">
<path d="M35.7973 1.98002C59.7517 4.28256 59.19 30.4786 57.4326 41.277C57.1518 43.7189 55.1629 49.1455 54.233 51.4013L41.9392 73.4791L38.069 89.8798L29.6454 95.557C22.3159 83.3703 6.92812 57.0682 4.0134 49.3527C1.09869 41.6372 0.696519 34.8306 0.85977 32.3918C0.58334 21.6949 11.8429 -0.322508 35.7973 1.98002Z" fill="#ED4746" stroke="black" stroke-width="0.682207"/>
<path d="M41.3516 1.0827C65.3061 3.38523 67.7798 25.5576 66.0223 36.356C65.7415 38.7979 63.7526 44.2245 62.8228 46.4803L50.5289 68.5581L38.2351 90.636C30.9056 78.4493 15.5178 52.1472 12.6031 44.4317C9.68841 36.7162 9.28624 29.9096 9.44949 27.4707C10.1025 17.7153 17.3972 -1.21983 41.3516 1.0827Z" fill="#F2F8D7" stroke="black" stroke-width="0.682207"/>
<circle cx="15.7666" cy="15.7666" r="15.4255" transform="matrix(-0.999666 0.0258332 0.0258332 0.999666 53.6594 12.4374)" fill="#E1D7CE" stroke="black" stroke-width="0.682207"/>
<mask id="path-4-inside-1_5_370" fill="white">
<path d="M37.8981 12.8447C32.5727 12.9823 27.9333 15.7455 25.1845 19.863C26.5704 19.4218 28.0413 19.1659 29.5683 19.1264C38.2728 18.9017 45.512 25.7758 45.7369 34.4805C45.8242 37.8598 44.8408 41.018 43.0965 43.6308C49.6108 41.5569 54.2522 35.3763 54.0667 28.1987C53.8417 19.494 46.6028 12.6197 37.8981 12.8447Z"/>
</mask>
<path d="M37.8981 12.8447C32.5727 12.9823 27.9333 15.7455 25.1845 19.863C26.5704 19.4218 28.0413 19.1659 29.5683 19.1264C38.2728 18.9017 45.512 25.7758 45.7369 34.4805C45.8242 37.8598 44.8408 41.018 43.0965 43.6308C49.6108 41.5569 54.2522 35.3763 54.0667 28.1987C53.8417 19.494 46.6028 12.6197 37.8981 12.8447Z" fill="#ED4746"/>
<path d="M37.8981 12.8447L37.8804 12.1627V12.1627L37.8981 12.8447ZM25.1845 19.863L25.3914 20.513L23.5359 21.1037L24.6171 19.4842L25.1845 19.863ZM29.5683 19.1264L29.5507 18.4444L29.5507 18.4444L29.5683 19.1264ZM45.7369 34.4805L46.4189 34.4628L46.4189 34.4628L45.7369 34.4805ZM43.0965 43.6308L43.3034 44.2809L41.4478 44.8716L42.5291 43.252L43.0965 43.6308ZM54.0667 28.1987L54.7487 28.1811V28.1811L54.0667 28.1987ZM37.8981 12.8447L37.9157 13.5267C32.8214 13.6583 28.3829 16.3007 25.7519 20.2417L25.1845 19.863L24.6171 19.4842C27.4837 15.1903 32.3241 12.3063 37.8804 12.1627L37.8981 12.8447ZM25.1845 19.863L24.9775 19.2129C26.424 18.7524 27.9585 18.4856 29.5507 18.4444L29.5683 19.1264L29.5859 19.8084C28.124 19.8462 26.7169 20.0911 25.3914 20.513L25.1845 19.863ZM29.5683 19.1264L29.5507 18.4444C38.6319 18.21 46.1842 25.3816 46.4189 34.4628L45.7369 34.4805L45.055 34.4981C44.8397 26.1701 37.9138 19.5934 29.5859 19.8084L29.5683 19.1264ZM45.7369 34.4805L46.4189 34.4628C46.5099 37.9876 45.4838 41.2836 43.6638 44.0096L43.0965 43.6308L42.5291 43.252C44.1978 40.7524 45.1385 37.7319 45.055 34.4981L45.7369 34.4805ZM43.0965 43.6308L42.8895 42.9808C49.1224 40.9964 53.5621 35.0824 53.3847 28.2163L54.0667 28.1987L54.7487 28.1811C54.9422 35.6703 50.0991 42.1173 43.3034 44.2809L43.0965 43.6308ZM54.0667 28.1987L53.3847 28.2163C53.1695 19.8882 46.2438 13.3114 37.9157 13.5267L37.8981 12.8447L37.8804 12.1627C46.9618 11.928 54.514 19.0997 54.7487 28.1811L54.0667 28.1987Z" fill="black" mask="url(#path-4-inside-1_5_370)"/>
</svg>
