<svg width="57" height="81" viewBox="0 0 57 81" fill="none" xmlns="http://www.w3.org/2000/svg">
<path d="M26.7369 1.6484C6.79494 3.56525 7.26254 25.3733 8.72561 34.3629C8.95937 36.3957 10.6151 40.9134 11.3892 42.7913L21.6237 61.171L24.8457 74.8244L31.8583 79.5506C37.9601 69.4053 50.7703 47.509 53.1968 41.0859C55.6232 34.6628 55.9581 28.9963 55.8221 26.966C56.0523 18.0609 46.6788 -0.268443 26.7369 1.6484Z" fill="#F2F8D7" stroke="black" stroke-width="0.567933"/>
<path d="M22.1126 0.901404C2.1707 2.81825 0.111353 21.2766 1.57442 30.2662C1.80818 32.2991 3.46395 36.8167 4.23802 38.6946L14.4726 57.0743L24.7071 75.454C30.8089 65.3087 43.6191 43.4123 46.0456 36.9892C48.4721 30.5661 48.8069 24.8996 48.671 22.8693C48.1273 14.748 42.0545 -1.01544 22.1126 0.901404Z" fill="#ED4746" stroke="black" stroke-width="0.567933"/>
<circle cx="24.6486" cy="23.8144" r="12.8416" transform="rotate(1.4803 24.6486 23.8144)" fill="#E1D7CE" stroke="black" stroke-width="0.567933"/>
<mask id="path-4-inside-1_5_379" fill="white">
<path d="M24.9881 10.6932C29.4211 10.8079 33.2838 13.1075 35.5722 16.535C34.4184 16.1677 33.194 15.9548 31.9227 15.922C24.6761 15.7347 18.6493 21.4578 18.462 28.7045C18.3893 31.5174 19.2078 34.1463 20.6595 36.3214C15.237 34.5946 11.3732 29.4506 11.5274 23.4757C11.7147 16.2291 17.7414 10.5059 24.9881 10.6932Z"/>
</mask>
<path d="M24.9881 10.6932C29.4211 10.8079 33.2838 13.1075 35.5722 16.535C34.4184 16.1677 33.194 15.9548 31.9227 15.922C24.6761 15.7347 18.6493 21.4578 18.462 28.7045C18.3893 31.5174 19.2078 34.1463 20.6595 36.3214C15.237 34.5946 11.3732 29.4506 11.5274 23.4757C11.7147 16.2291 17.7414 10.5059 24.9881 10.6932Z" fill="#F2F8D7"/>
<path d="M24.9881 10.6932L25.0028 10.1255L25.0028 10.1255L24.9881 10.6932ZM35.5722 16.535L35.3999 17.0762L36.9447 17.568L36.0445 16.2196L35.5722 16.535ZM31.9227 15.922L31.9374 15.3542L31.9374 15.3542L31.9227 15.922ZM18.462 28.7045L17.8943 28.6898L17.8943 28.6898L18.462 28.7045ZM20.6595 36.3214L20.4872 36.8625L22.0319 37.3544L21.1319 36.0061L20.6595 36.3214ZM11.5274 23.4757L10.9597 23.4611L10.9597 23.4611L11.5274 23.4757ZM24.9881 10.6932L24.9734 11.261C29.2141 11.3707 32.9096 13.5698 35.0998 16.8503L35.5722 16.535L36.0445 16.2196C33.6581 12.6453 29.628 10.2451 25.0028 10.1255L24.9881 10.6932ZM35.5722 16.535L35.7444 15.9938C34.5402 15.6104 33.2628 15.3885 31.9374 15.3542L31.9227 15.922L31.908 16.4897C33.1251 16.5212 34.2965 16.7249 35.3999 17.0762L35.5722 16.535ZM31.9227 15.922L31.9374 15.3542C24.3772 15.1588 18.0897 21.1296 17.8943 28.6898L18.462 28.7045L19.0298 28.7191C19.209 21.7861 24.975 16.3105 31.908 16.4897L31.9227 15.922ZM18.462 28.7045L17.8943 28.6898C17.8185 31.6238 18.6725 34.3674 20.1872 36.6367L20.6595 36.3214L21.1319 36.0061C19.743 33.9253 18.9602 31.411 19.0298 28.7191L18.462 28.7045ZM20.6595 36.3214L20.8319 35.7802C15.6435 34.128 11.9476 29.2058 12.0951 23.4904L11.5274 23.4757L10.9597 23.4611C10.7987 29.6954 14.8304 35.0612 20.4872 36.8625L20.6595 36.3214ZM11.5274 23.4757L12.0951 23.4904C12.2743 16.5573 18.0403 11.0818 24.9734 11.261L24.9881 10.6932L25.0028 10.1255C17.4426 9.9301 11.155 15.9008 10.9597 23.4611L11.5274 23.4757Z" fill="black" mask="url(#path-4-inside-1_5_379)"/>
</svg>
