<svg width="68" height="97" viewBox="0 0 68 97" fill="none" xmlns="http://www.w3.org/2000/svg">
<path d="M32.1165 1.98005C8.16202 4.28259 8.72371 30.4787 10.4812 41.277C10.762 43.7189 12.7509 49.1455 13.6807 51.4013L25.9745 73.4792L29.8447 89.8798L38.2684 95.557C45.5979 83.3704 60.9856 57.0682 63.9004 49.3527C66.8151 41.6372 67.2172 34.8306 67.054 32.3918C67.3304 21.6949 56.0709 -0.322478 32.1165 1.98005Z" fill="#ED4746" stroke="black" stroke-width="0.682207"/>
<path d="M26.5621 1.0827C2.6077 3.38523 0.133989 25.5576 1.89144 36.356C2.17223 38.7979 4.16116 44.2245 5.09098 46.4803L17.3848 68.5581L29.6786 90.636C37.0082 78.4493 52.3959 52.1472 55.3106 44.4317C58.2253 36.7162 58.6275 29.9096 58.4643 27.4707C57.8112 17.7153 50.5166 -1.21983 26.5621 1.0827Z" fill="#F2F8D7" stroke="black" stroke-width="0.682207"/>
<circle cx="29.6084" cy="28.6061" r="15.4255" transform="rotate(1.4803 29.6084 28.6061)" fill="#E1D7CE" stroke="black" stroke-width="0.682207"/>
<mask id="path-4-inside-1_5_371" fill="white">
<path d="M30.0157 12.8447C35.341 12.9823 39.9805 15.7455 42.7293 19.863C41.3433 19.4218 39.8725 19.1659 38.3455 19.1264C29.6409 18.9017 22.4018 25.7759 22.1768 34.4805C22.0896 37.8598 23.073 41.018 24.8173 43.6308C18.303 41.5569 13.6616 35.3764 13.8471 28.1987C14.072 19.494 21.311 12.6198 30.0157 12.8447Z"/>
</mask>
<path d="M30.0157 12.8447C35.341 12.9823 39.9805 15.7455 42.7293 19.863C41.3433 19.4218 39.8725 19.1659 38.3455 19.1264C29.6409 18.9017 22.4018 25.7759 22.1768 34.4805C22.0896 37.8598 23.073 41.018 24.8173 43.6308C18.303 41.5569 13.6616 35.3764 13.8471 28.1987C14.072 19.494 21.311 12.6198 30.0157 12.8447Z" fill="#ED4746"/>
<path d="M30.0157 12.8447L30.0333 12.1627V12.1627L30.0157 12.8447ZM42.7293 19.863L42.5223 20.513L44.3779 21.1038L43.2967 19.4842L42.7293 19.863ZM38.3455 19.1264L38.3631 18.4445L38.3631 18.4445L38.3455 19.1264ZM22.1768 34.4805L21.4948 34.4629L21.4948 34.4629L22.1768 34.4805ZM24.8173 43.6308L24.6103 44.2809L26.4659 44.8717L25.3847 43.2521L24.8173 43.6308ZM13.8471 28.1987L13.1651 28.1811V28.1811L13.8471 28.1987ZM30.0157 12.8447L29.9981 13.5267C35.0923 13.6583 39.5309 16.3007 42.1619 20.2418L42.7293 19.863L43.2967 19.4842C40.4301 15.1903 35.5897 12.3063 30.0333 12.1627L30.0157 12.8447ZM42.7293 19.863L42.9362 19.2129C41.4898 18.7525 39.9552 18.4856 38.3631 18.4445L38.3455 19.1264L38.3278 19.8084C39.7897 19.8462 41.1969 20.0911 42.5223 20.513L42.7293 19.863ZM38.3455 19.1264L38.3631 18.4445C29.2819 18.21 21.7295 25.3816 21.4948 34.4629L22.1768 34.4805L22.8588 34.4981C23.074 26.1702 29.9999 19.5934 38.3279 19.8084L38.3455 19.1264ZM22.1768 34.4805L21.4948 34.4629C21.4038 37.9876 22.43 41.2836 24.2499 44.0096L24.8173 43.6308L25.3847 43.2521C23.7159 40.7524 22.7753 37.732 22.8588 34.4981L22.1768 34.4805ZM24.8173 43.6308L25.0243 42.9808C18.7914 40.9964 14.3516 35.0824 14.529 28.2164L13.8471 28.1987L13.1651 28.1811C12.9715 35.6703 17.8146 42.1174 24.6103 44.2809L24.8173 43.6308ZM13.8471 28.1987L14.529 28.2164C14.7443 19.8883 21.67 13.3115 29.9981 13.5267L30.0157 12.8447L30.0333 12.1627C20.9519 11.9281 13.3998 19.0997 13.1651 28.1811L13.8471 28.1987Z" fill="black" mask="url(#path-4-inside-1_5_371)"/>
</svg>
