<svg width="59" height="83" viewBox="0 0 59 83" fill="none" xmlns="http://www.w3.org/2000/svg">
<path d="M30.637 1.69467C51.1388 3.66533 50.658 26.0857 49.1539 35.3277C48.9136 37.4176 47.2113 42.0621 46.4155 43.9927L35.8936 62.8884L32.5813 76.9253L25.3717 81.7842C19.0986 71.354 5.92874 48.8429 3.43413 42.2394C0.93952 35.636 0.595316 29.8104 0.73504 27.7231C0.498448 18.568 10.1351 -0.275998 30.637 1.69467Z" fill="white" stroke="black" stroke-width="0.583879"/>
<path d="M35.3913 0.926686C55.8931 2.89735 58.0103 21.874 56.5061 31.116C56.2658 33.2059 54.5635 37.8504 53.7677 39.781L43.2458 58.6767L32.7239 77.5725C26.4508 67.1423 13.281 44.6311 10.7863 38.0277C8.29173 31.4242 7.94752 25.5987 8.08725 23.5114C8.64616 15.162 14.8894 -1.04398 35.3913 0.926686Z" fill="#ED4746" stroke="black" stroke-width="0.583879"/>
<circle cx="13.4941" cy="13.4941" r="13.2022" transform="matrix(-0.999666 0.0258332 0.0258332 0.999666 45.9252 10.6448)" fill="#E1D7CE" stroke="black" stroke-width="0.583879"/>
<mask id="path-4-inside-1_5_416" fill="white">
<path d="M32.4356 10.9934C27.8777 11.1112 23.9065 13.476 21.5539 17.0002C22.7403 16.6224 23.9993 16.4036 25.3065 16.3698C32.7565 16.1775 38.9522 22.0608 39.1447 29.5109C39.2193 32.4027 38.3779 35.1053 36.8853 37.3414C42.4603 35.5661 46.4326 30.2773 46.2738 24.1345C46.0813 16.6843 39.8857 10.8009 32.4356 10.9934Z"/>
</mask>
<path d="M32.4356 10.9934C27.8777 11.1112 23.9065 13.476 21.5539 17.0002C22.7403 16.6224 23.9993 16.4036 25.3065 16.3698C32.7565 16.1775 38.9522 22.0608 39.1447 29.5109C39.2193 32.4027 38.3779 35.1053 36.8853 37.3414C42.4603 35.5661 46.4326 30.2773 46.2738 24.1345C46.0813 16.6843 39.8857 10.8009 32.4356 10.9934Z" fill="white"/>
<path d="M32.4356 10.9934L32.4205 10.4097V10.4097L32.4356 10.9934ZM21.5539 17.0002L21.7311 17.5565L20.1429 18.0622L21.0683 16.676L21.5539 17.0002ZM25.3065 16.3698L25.2914 15.7861L25.2914 15.7861L25.3065 16.3698ZM39.1447 29.5109L39.7284 29.4958L39.7284 29.4958L39.1447 29.5109ZM36.8853 37.3414L37.0625 37.8977L35.4744 38.4034L36.3997 37.0172L36.8853 37.3414ZM46.2738 24.1345L46.8575 24.1194V24.1194L46.2738 24.1345ZM32.4356 10.9934L32.4507 11.5771C28.0905 11.6898 24.2913 13.9512 22.0395 17.3243L21.5539 17.0002L21.0683 16.676C23.5217 13.0008 27.6649 10.5326 32.4205 10.4097L32.4356 10.9934ZM21.5539 17.0002L21.3768 16.4438C22.615 16.0496 23.9286 15.8213 25.2914 15.7861L25.3065 16.3698L25.3216 16.9535C24.0701 16.9858 22.8656 17.1953 21.7311 17.5565L21.5539 17.0002ZM25.3065 16.3698L25.2914 15.7861C33.0637 15.5854 39.5275 21.7234 39.7284 29.4958L39.1447 29.5109L38.561 29.5259C38.3768 22.3983 32.4492 16.7695 25.3215 16.9535L25.3065 16.3698ZM39.1447 29.5109L39.7284 29.4958C39.8062 32.5121 38.9282 35.3326 37.3709 37.6655L36.8853 37.3414L36.3997 37.0172C37.8276 34.878 38.6325 32.2933 38.561 29.5259L39.1447 29.5109ZM36.8853 37.3414L36.7081 36.785C42.0423 35.0864 45.842 30.0256 45.6901 24.1495L46.2738 24.1345L46.8575 24.1194C47.0231 30.5289 42.8782 36.0458 37.0625 37.8977L36.8853 37.3414ZM46.2738 24.1345L45.6901 24.1495C45.5059 17.0218 39.5784 11.3929 32.4507 11.5771L32.4356 10.9934L32.4205 10.4097C40.193 10.2089 46.6566 16.3469 46.8575 24.1194L46.2738 24.1345Z" fill="black" mask="url(#path-4-inside-1_5_416)"/>
</svg>
