<svg xmlns="http://www.w3.org/2000/svg" xmlns:ns1="http://sodipodi.sourceforge.net/DTD/sodipodi-0.dtd" xmlns:ns2="http://www.inkscape.org/namespaces/inkscape" version="1.1" id="svg2" width="360" height="80" viewBox="0 0 863.76001 226.77333" ns1:docname="OmnivoreFinallogo.eps">
  <defs id="defs6" />
  <ns1:namedview id="namedview4" pagecolor="#ffffff" bordercolor="#000000" borderopacity="0.25" ns2:showpageshadow="2" ns2:pageopacity="0.0" ns2:pagecheckerboard="0" ns2:deskcolor="#d1d1d1" />
  <g id="g8" ns2:groupmode="layer" ns2:label="ink_ext_XXXXXX" transform="matrix(1.3333333,0,0,-1.3333333,0,226.77333)">
    <g id="g10" transform="scale(0.1)">
      <path d="m 850.391,0 c 0,378 246.639,698.32 587.749,808.988 v 0 c 82.43,26.739 167.27,41.289 258.58,41.395 0.08,-0.039 4.03,0.008 4.05,0.008 v 0 c -0.07,0 -0.12,0 -0.18,0 C 1482.99,1017.72 1210.56,1117.27 914.844,1117.27 560.762,1117.27 240.039,974.594 6.89453,743.656 59.4336,324.422 416.902,0 850.379,0" style="fill:#1a4538;fill-opacity:1;fill-rule:nonzero;stroke:none" id="path12" />
      <path d="m 1696.72,850.383 c -91.31,-0.106 -176.14,-14.656 -258.58,-41.395 v 0 C 1097.03,698.32 850.391,378 850.391,0 h -0.012 0.012 v 0 0 c 469.379,0 849.939,380.301 850.389,849.559 v 0.347 0.485 c 0,0 -3.98,-0.047 -4.06,-0.008" style="fill:#74bd2c;fill-opacity:1;fill-rule:nonzero;stroke:none" id="path14" />
      <path d="m 1700.59,850.391 c 0.06,0 0.12,0 0.19,0 0,469.649 -380.74,850.379 -850.382,850.379 C 380.723,1700.77 0,1320.04 0,850.391 0,814.164 2.28516,778.48 6.67969,743.441 239.832,974.512 560.652,1117.26 914.844,1117.26 c 295.716,0 568.146,-99.54 785.746,-266.869" style="fill:#77cddb;fill-opacity:1;fill-rule:nonzero;stroke:none" id="path16" />
      <path d="m 494.676,77.8086 c 0.265,469.4414 380.89,849.9064 850.384,849.9064 126.62,0 246.75,-27.707 354.71,-77.332 0.28,0 0.54,0 0.81,0 -217.6,167.327 -490.02,266.877 -785.728,266.877 -354.2,0 -675.02,-142.756 -908.18403,-373.819 C 43.8672,447.102 233.555,198.238 494.676,77.8086" style="fill:#0d6254;fill-opacity:1;fill-rule:nonzero;stroke:none" id="path18" />
      <path d="m 2255.68,670.219 c 45.51,0 79.19,15.269 101.06,45.859 21.87,30.567 32.8,75.371 32.8,134.383 0,59.016 -10.93,103.992 -32.8,134.918 -21.87,30.941 -55.55,46.401 -101.06,46.401 -46.22,0 -80.35,-15.56 -102.39,-46.663 -22.04,-31.121 -33.06,-75.996 -33.06,-134.656 0,-58.66 11.02,-103.367 33.06,-134.109 22.04,-30.762 56.17,-46.133 102.39,-46.133 z m 0,462.351 c 40.88,0 77.95,-6.58 111.19,-19.73 33.25,-13.16 61.6,-31.82 85.06,-56 23.47,-24.18 41.59,-53.69 54.4,-88.527 12.8,-34.844 19.2,-73.774 19.2,-116.782 0,-43.383 -6.4,-82.484 -19.2,-117.32 -12.81,-34.84 -30.93,-64.531 -54.4,-89.063 -23.46,-24.527 -51.81,-43.367 -85.06,-56.519 -33.24,-13.149 -70.31,-19.738 -111.19,-19.738 -40.89,0 -78.03,6.589 -111.45,19.738 -33.42,13.152 -61.96,31.992 -85.59,56.519 -23.65,24.532 -41.95,54.223 -54.93,89.063 -12.98,34.836 -19.46,73.937 -19.46,117.32 0,43.008 6.48,81.938 19.46,116.782 12.98,34.837 31.28,64.347 54.93,88.527 23.63,24.18 52.17,42.84 85.59,56 33.42,13.15 70.56,19.73 111.45,19.73" style="fill:#0d6254;fill-opacity:1;fill-rule:nonzero;stroke:none" id="path20" />
      <path d="m 2628.45,576.891 v 547.149 h 80.51 c 17.07,0 28.28,-8 33.6,-24 l 8.53,-40.53 c 9.6,10.67 19.64,20.44 30.14,29.33 10.48,8.88 21.68,16.53 33.59,22.93 11.91,6.4 24.71,11.47 38.4,15.19 13.68,3.75 28.7,5.61 45.06,5.61 34.48,0 62.83,-9.33 85.06,-28 22.22,-18.66 38.84,-43.46 49.86,-74.39 8.53,18.13 19.2,33.68 31.99,46.66 12.81,12.98 26.85,23.54 42.13,31.73 15.29,8.17 31.56,14.22 48.8,18.14 17.24,3.9 34.57,5.86 51.99,5.86 30.22,0 57.07,-4.62 80.53,-13.87 23.47,-9.25 43.2,-22.75 59.19,-40.53 16,-17.78 28.18,-39.46 36.53,-65.06 8.35,-25.598 12.53,-54.926 12.53,-87.985 V 576.891 h -131.71 v 348.234 c 0,34.836 -7.65,61.055 -22.93,78.655 -15.3,17.6 -37.69,26.4 -67.2,26.4 -13.52,0 -26.05,-2.32 -37.59,-6.93 -11.56,-4.63 -21.69,-11.3 -30.4,-20 -8.71,-8.715 -15.56,-19.648 -20.53,-32.801 -4.99,-13.156 -7.47,-28.261 -7.47,-45.324 V 576.891 h -132.25 v 348.234 c 0,36.613 -7.39,63.277 -22.13,79.985 -14.76,16.71 -36.53,25.07 -65.33,25.07 -18.84,0 -36.53,-4.72 -53.06,-14.14 -16.53,-9.41 -31.92,-22.306 -46.12,-38.653 V 576.891 h -131.72" style="fill:#0d6254;fill-opacity:1;fill-rule:nonzero;stroke:none" id="path22" />
      <path d="m 3526.48,576.891 v 547.149 h 80.53 c 17.06,0 28.26,-8 33.59,-24 l 9.07,-43.2 c 11.02,11.37 22.66,21.68 34.93,30.94 12.26,9.23 25.24,17.23 38.93,23.99 13.68,6.75 28.34,11.91 44,15.46 15.63,3.56 32.7,5.34 51.19,5.34 29.87,0 56.34,-5.07 79.45,-15.2 23.13,-10.14 42.4,-24.36 57.85,-42.66 15.48,-18.32 27.2,-40.17 35.2,-65.6 8.01,-25.415 12,-53.415 12,-83.985 V 576.891 H 3871.5 v 348.234 c 0,33.41 -7.71,59.273 -23.19,77.595 -15.46,18.3 -38.66,27.46 -69.58,27.46 -22.76,0 -44.09,-5.15 -64,-15.47 -19.92,-10.32 -38.75,-24.351 -56.53,-42.12 V 576.891 h -131.72" style="fill:#0d6254;fill-opacity:1;fill-rule:nonzero;stroke:none" id="path24" />
      <path d="M 4273.06,1124.04 V 576.891 h -131.72 v 547.149 z m 19.73,159.45 c 0,-11.39 -2.31,-22.06 -6.93,-32 -4.63,-9.96 -10.76,-18.67 -18.4,-26.13 -7.65,-7.47 -16.62,-13.42 -26.93,-17.87 -10.33,-4.44 -21.33,-6.67 -33.06,-6.67 -11.39,0 -22.14,2.23 -32.28,6.67 -10.12,4.45 -18.92,10.4 -26.38,17.87 -7.47,7.46 -13.43,16.17 -17.86,26.13 -4.47,9.94 -6.67,20.61 -6.67,32 0,11.73 2.2,22.74 6.67,33.06 4.43,10.31 10.39,19.2 17.86,26.66 7.46,7.47 16.26,13.42 26.38,17.87 10.14,4.44 20.89,6.66 32.28,6.66 11.73,0 22.73,-2.22 33.06,-6.66 10.31,-4.45 19.28,-10.4 26.93,-17.87 7.64,-7.46 13.77,-16.35 18.4,-26.66 4.62,-10.32 6.93,-21.33 6.93,-33.06" style="fill:#0d6254;fill-opacity:1;fill-rule:nonzero;stroke:none" id="path26" />
      <path d="m 4695.95,576.891 h -119.46 l -217.57,547.149 h 109.31 c 9.6,0 17.69,-2.33 24.27,-6.93 6.58,-4.63 11.1,-10.5 13.6,-17.61 l 105.59,-292.23 c 6.04,-17.063 11.1,-33.782 15.19,-50.137 4.09,-16.348 7.74,-32.707 10.94,-49.063 3.2,16.356 6.84,32.715 10.93,49.063 4.08,16.355 9.34,33.074 15.73,50.137 l 108.25,292.23 c 2.49,7.11 6.94,12.98 13.34,17.61 6.4,4.6 14.04,6.93 22.93,6.93 h 104 L 4695.95,576.891" style="fill:#0d6254;fill-opacity:1;fill-rule:nonzero;stroke:none" id="path28" />
      <path d="m 5206.83,670.219 c 45.5,0 79.19,15.269 101.05,45.859 21.87,30.567 32.79,75.371 32.79,134.383 0,59.016 -10.92,103.992 -32.79,134.918 -21.86,30.941 -55.55,46.401 -101.05,46.401 -46.23,0 -80.36,-15.56 -102.39,-46.663 -22.05,-31.121 -33.06,-75.996 -33.06,-134.656 0,-58.66 11.01,-103.367 33.06,-134.109 22.03,-30.762 56.16,-46.133 102.39,-46.133 z m 0,462.351 c 40.87,0 77.94,-6.58 111.19,-19.73 33.24,-13.16 61.59,-31.82 85.06,-56 23.45,-24.18 41.59,-53.69 54.39,-88.527 12.79,-34.844 19.2,-73.774 19.2,-116.782 0,-43.383 -6.41,-82.484 -19.2,-117.32 -12.8,-34.84 -30.94,-64.531 -54.39,-89.063 -23.47,-24.527 -51.82,-43.367 -85.06,-56.519 -33.25,-13.149 -70.32,-19.738 -111.19,-19.738 -40.89,0 -78.04,6.589 -111.46,19.738 -33.43,13.152 -61.94,31.992 -85.59,56.519 -23.65,24.532 -41.96,54.223 -54.93,89.063 -12.99,34.836 -19.46,73.937 -19.46,117.32 0,43.008 6.47,81.938 19.46,116.782 12.97,34.837 31.28,64.347 54.93,88.527 23.65,24.18 52.16,42.84 85.59,56 33.42,13.15 70.57,19.73 111.46,19.73" style="fill:#0d6254;fill-opacity:1;fill-rule:nonzero;stroke:none" id="path30" />
      <path d="m 5579.58,576.891 v 547.149 h 77.33 c 13.51,0 22.92,-2.5 28.27,-7.47 5.33,-4.98 8.87,-13.52 10.66,-25.6 l 8.01,-66.13 c 19.53,33.78 42.47,60.44 68.78,80 26.3,19.54 55.82,29.33 88.52,29.33 27.01,0 49.42,-6.22 67.2,-18.67 l -17.06,-98.66 c -1.08,-6.39 -3.39,-10.93 -6.94,-13.59 -3.55,-2.66 -8.35,-4 -14.39,-4 -5.34,0 -12.64,1.25 -21.86,3.73 -9.26,2.49 -21.53,3.74 -36.8,3.74 -27.38,0 -50.85,-7.556 -70.4,-22.673 -19.55,-15.113 -36.1,-37.242 -49.59,-66.387 V 576.891 h -131.73" style="fill:#0d6254;fill-opacity:1;fill-rule:nonzero;stroke:none" id="path32" />
      <path d="m 6244.05,1038.18 c -38.4,0 -68.45,-10.85 -90.12,-32.53 -21.69,-21.697 -35.56,-52.447 -41.6,-92.259 h 247.44 c 0,17.066 -2.32,33.14 -6.93,48.257 -4.63,15.114 -11.74,28.348 -21.34,39.742 -9.6,11.37 -21.69,20.34 -36.26,26.92 -14.58,6.58 -31.64,9.87 -51.19,9.87 z m -2.67,94.39 c 34.49,0 66.21,-5.52 95.19,-16.53 28.97,-11.03 53.95,-27.12 74.93,-48.27 20.97,-21.16 37.33,-47.11 49.07,-77.856 11.72,-30.75 17.58,-65.863 17.58,-105.324 0,-9.953 -0.45,-18.219 -1.33,-24.797 -0.89,-6.578 -2.48,-11.727 -4.8,-15.465 -2.31,-3.73 -5.43,-6.394 -9.33,-7.996 -3.91,-1.602 -8.88,-2.402 -14.93,-2.402 h -338.09 c 3.9,-56.172 19.01,-97.414 45.32,-123.711 26.31,-26.321 61.14,-39.457 104.53,-39.457 21.33,0 39.73,2.468 55.19,7.457 15.46,4.972 28.97,10.472 40.52,16.531 11.56,6.035 21.68,11.543 30.4,16.523 8.71,4.981 17.15,7.469 25.34,7.469 5.33,0 9.95,-1.062 13.85,-3.203 3.92,-2.129 7.29,-5.156 10.14,-9.062 l 38.39,-47.989 c -14.57,-17.066 -30.92,-31.386 -49.05,-42.929 -18.13,-11.559 -37.06,-20.797 -56.8,-27.727 -19.73,-6.941 -39.82,-11.82 -60.25,-14.66 -20.45,-2.852 -40.27,-4.281 -59.48,-4.281 -38.03,0 -73.41,6.32 -106.11,18.941 -32.72,12.609 -61.15,31.27 -85.32,55.977 -24.19,24.711 -43.21,55.293 -57.06,91.73 -13.88,36.438 -20.8,78.664 -20.8,126.66 0,37.321 6.03,72.434 18.13,105.321 12.08,32.87 29.41,61.5 51.99,85.86 22.57,24.34 50.13,43.63 82.66,57.86 32.53,14.21 69.24,21.33 110.12,21.33" style="fill:#0d6254;fill-opacity:1;fill-rule:nonzero;stroke:none" id="path34" />
    </g>
  </g>
</svg>